# xmcd CD database file
#
# Track frame offsets:
#	150
#	17514
#	34312
#	49725
#	62974
#	75736
#	91958
#	105836
#	126894
#	139405
#	153295
#	165635
#	181217
#	197101
#	226078
#
# Disc length: 3176 seconds
#
# Revision: 0
# Processed by: cddbd v1.5.1PL2 Copyright (c) Steve Scherf et al.
# Submitted via: CDex 1.51
#
DISCID=bc0c660f
DTITLE=Steve Tyrell - The Disney Standards
DYEAR=2006
DGENRE=Jazz
TTITLE0=When You Wish Upon A Star
TTITLE1=Kiss the Girl
TTITLE2=You've Got A Friend In Me
TTITLE3=Bella Notte
TTITLE4=Ev'rybody Wants To Be a Cat
TTITLE5=Beauty and the Beast
TTITLE6=He's a Tramp
TTITLE7=You'll Be in My Heart
TTITLE8=A Dream Is a Wish Your Heart Makes
TTITLE9=When She Loved Me
TTITLE10=The Bare Necessities
TTITLE11=Once Upon a Dream
TTITLE12=Cruella De Vil
TTITLE13=Baby Mine
TTITLE14=Belle Notte video (Data Track)
EXTD=YEAR: 2006
EXTT0=
EXTT1=
EXTT2=
EXTT3=
EXTT4=
EXTT5=
EXTT6=
EXTT7=
EXTT8=
EXTT9=
EXTT10=
EXTT11=
EXTT12=
EXTT13=
EXTT14=
PLAYORDER=
